<svg width="126" height="48" viewBox="0 0 126 48" fill="none" xmlns="http://www.w3.org/2000/svg">
<g style="mix-blend-mode:luminosity" clip-path="url(#clip0_333_1362)">
<path d="M17.3704 38.0663C15.4863 38.3595 13.569 38.4474 11.5857 38.6816L5.53642 22.9786V39.3555C3.65232 39.5313 1.93346 39.7656 0.148438 40V10H5.17303L12.0484 27.0217V10H17.3704V38.0663ZM27.7829 20.9863C29.8325 20.9863 32.9728 20.8984 34.8569 20.8984V25.5858C32.5098 25.5858 29.7664 25.5858 27.7829 25.6737V32.6465C30.8903 32.4708 33.9975 32.2362 37.1376 32.1483V36.6597L22.4939 37.6854V10H37.1376V14.6875H27.7829V20.9863ZM56.8057 14.6876H51.3185V36.2501C49.5335 36.2501 47.7485 36.2501 46.0299 36.3085V14.6876H40.5427V10H56.8059L56.8057 14.6876ZM65.4001 20.6642H72.6394V25.3516H65.4001V35.9864H60.21V10H74.9863V14.6875H65.4001V20.6642ZM83.5807 31.8848C86.5889 31.9432 89.6298 32.1486 92.5719 32.2948V36.9238C87.845 36.66 83.118 36.3966 78.2919 36.3085V10H83.5807V31.8848ZM97.0343 37.2461C98.7202 37.3341 100.505 37.422 102.224 37.5975V10H97.0343V37.2461ZM125.396 10L118.686 24.2676L125.396 40C123.413 39.7656 121.429 39.4433 119.446 39.1503L115.645 30.4786L111.778 38.4474C109.86 38.1542 108.009 38.0663 106.092 37.8319L112.901 24.0917L106.753 10H112.438L115.909 17.8809L119.611 10H125.396V10Z" fill="#D81F26"/>
</g>
<defs>
<clipPath id="clip0_333_1362">
<rect width="125.241" height="48" fill="white" transform="translate(0.148438)"/>
</clipPath>
</defs>
</svg>
