<svg width="147" height="48" viewBox="0 0 147 48" fill="none" xmlns="http://www.w3.org/2000/svg">
<g style="mix-blend-mode:luminosity" clip-path="url(#clip0_333_1361)">
<path d="M51.2594 34.7749V20.2199H51.552L63.5059 34.7749H67.2676V13.4006H63.0879V27.919H62.7954L50.8414 13.4006H47.0797V34.7749H51.2594ZM79.0962 35.1049C84.6134 35.1049 87.999 31.9519 87.999 26.6725C87.999 21.4297 84.6134 18.2401 79.0962 18.2401C73.6208 18.2401 70.1934 21.4297 70.1934 26.6725C70.2352 31.9519 73.579 35.1049 79.0962 35.1049ZM79.0962 32.0252C76.1704 32.0252 74.4985 30.0821 74.4985 26.6725C74.4985 23.2995 76.1704 21.3198 79.0962 21.3198C82.022 21.3198 83.6939 23.2995 83.6939 26.6725C83.6939 30.0821 82.022 32.0252 79.0962 32.0252ZM91.8025 14.6105V18.68H88.8767V21.6131H91.8025V30.4487C91.8025 33.6017 93.4744 34.8483 97.7377 34.8483C98.5318 34.8483 99.326 34.7749 99.9529 34.6649V31.8053C99.4514 31.8419 99.117 31.8786 98.5318 31.8786C96.7763 31.8786 95.9822 31.182 95.9822 29.5688V21.6131H99.9529V18.68H95.9822V14.6105H91.8025ZM102.461 34.7749H106.64V18.5701H102.461V34.7749ZM104.551 15.8937C105.93 15.8937 107.058 14.9038 107.058 13.6939C107.058 12.4474 105.93 11.4575 104.551 11.4575C103.171 11.4575 102.043 12.4474 102.043 13.6939C102.043 14.9038 103.171 15.8937 104.551 15.8937ZM118.093 35.1049C123.61 35.1049 126.996 31.9519 126.996 26.6725C126.996 21.4297 123.61 18.2401 118.093 18.2401C112.617 18.2401 109.19 21.4297 109.19 26.6725C109.19 31.9519 112.534 35.1049 118.093 35.1049ZM118.093 32.0252C115.167 32.0252 113.495 30.0821 113.495 26.6725C113.495 23.2995 115.167 21.3198 118.093 21.3198C120.977 21.3198 122.69 23.2995 122.69 26.6725C122.649 30.0821 120.977 32.0252 118.093 32.0252ZM129.462 34.7749H133.641V25.3526C133.641 22.9696 135.23 21.4664 137.696 21.4664C140.245 21.4664 141.416 22.7129 141.416 25.1693V34.7749H145.595V24.2894C145.595 20.4032 143.338 18.2401 139.242 18.2401C136.484 18.2401 134.644 19.34 133.767 21.1731H133.474V18.5701H129.42C129.462 18.5701 129.462 34.7749 129.462 34.7749Z" fill="black"/>
<path fill-rule="evenodd" clip-rule="evenodd" d="M7.0035 12.0326C8.22 12.9024 8.66002 12.8337 10.9377 12.6964L32.3949 11.5519C32.8608 11.5519 32.4725 11.1399 32.3172 11.0941L28.7453 8.82806C28.0724 8.37028 27.1406 7.82093 25.4064 7.95826L4.64813 9.30874C3.89752 9.37741 3.74222 9.72075 4.05282 9.97254L7.0035 12.0326ZM8.29765 16.4502V36.4098C8.29765 37.4857 8.89297 37.8748 10.2648 37.8061L33.8443 36.593C35.2161 36.5243 35.3714 35.7918 35.3714 34.922V15.0998C35.3714 14.23 34.9832 13.7493 34.1549 13.818L9.51416 15.0998C8.60825 15.1684 8.29765 15.5804 8.29765 16.4502ZM31.5666 17.5261C31.7219 18.1212 31.5666 18.7392 30.8936 18.8079L29.7548 19.0139V33.7547C28.7712 34.2125 27.8653 34.4871 27.0888 34.4871C25.8723 34.4871 25.5617 34.1438 24.6558 33.1367L17.2273 22.8135V32.7933L19.5827 33.2511C19.5827 33.2511 19.5827 34.4642 17.6932 34.4642L12.4648 34.7389C12.3095 34.4642 12.4648 33.8005 12.9825 33.6631L14.3543 33.3198V20.1355L12.4648 19.9981C12.3095 19.403 12.6978 18.5332 13.759 18.4645L19.3756 18.1212L27.1147 28.5588V19.3343L25.1476 19.1283C24.9923 18.3959 25.6135 17.8465 26.3641 17.7778L31.5666 17.5261ZM2.91396 7.47759L24.5264 6.08133C27.1665 5.87532 27.8653 6.01266 29.5218 7.08847L36.4067 11.3688C37.5456 12.1013 37.9338 12.3073 37.9338 13.1084V36.6159C37.9338 38.0808 37.3385 38.9506 35.2161 39.0879L10.1354 40.4384C8.5306 40.5071 7.77999 40.3011 6.95173 39.3626L1.85275 33.5258C0.946841 32.45 0.558594 31.6488 0.558594 30.7104V9.81231C0.558594 8.59917 1.17979 7.61492 2.91396 7.47759Z" fill="black"/>
</g>
<defs>
<clipPath id="clip0_333_1361">
<rect width="145.551" height="48" fill="white" transform="translate(0.558594)"/>
</clipPath>
</defs>
</svg>
